<svg width="33" height="33" viewBox="0 0 33 33" fill="none" xmlns="http://www.w3.org/2000/svg">
    <path d="M6.33829 18.9583L5.58797 18.2972H5.58797L6.33829 18.9583ZM7.53044 16.2891L6.53727 16.1725L7.53044 16.2891ZM25.6047 16.2891L26.5978 16.1725L25.6047 16.2891ZM26.7968 18.9583L27.5471 18.2972H27.5471L26.7968 18.9583ZM25.1371 12.3087L24.1439 12.4254V12.4254L25.1371 12.3087ZM7.99805 12.3087L8.99122 12.4254L7.99805 12.3087ZM24.933 22.0375H8.2021V24.0375H24.933V22.0375ZM24.1439 12.4254L24.6115 16.4058L26.5978 16.1725L26.1302 12.192L24.1439 12.4254ZM8.52361 16.4058L8.99122 12.4254L7.00488 12.192L6.53727 16.1725L8.52361 16.4058ZM7.0886 19.6194C7.88286 18.7179 8.38363 17.5974 8.52361 16.4058L6.53727 16.1725C6.44488 16.9589 6.11424 17.6999 5.58797 18.2972L7.0886 19.6194ZM24.6115 16.4058C24.7515 17.5974 25.2522 18.7179 26.0465 19.6194L27.5471 18.2972C27.0209 17.6999 26.6902 16.959 26.5978 16.1725L24.6115 16.4058ZM8.2021 22.0375C6.9211 22.0375 6.26574 20.5533 7.0886 19.6194L5.58797 18.2972C3.60854 20.5439 5.22756 24.0375 8.2021 24.0375V22.0375ZM24.933 24.0375C27.9075 24.0375 29.5266 20.5439 27.5471 18.2972L26.0465 19.6194C26.8694 20.5533 26.214 22.0375 24.933 22.0375V24.0375ZM26.1302 12.192C25.5631 7.3643 21.4474 3.7334 16.5675 3.7334V5.7334C20.444 5.7334 23.6963 8.61575 24.1439 12.4254L26.1302 12.192ZM8.99122 12.4254C9.43876 8.61575 12.6911 5.7334 16.5675 5.7334V3.7334C11.6877 3.7334 7.57202 7.3643 7.00488 12.192L8.99122 12.4254Z" fill="#28303F"/>
    <path d="M21.5672 26.0146C21.7673 25.4998 21.5122 24.9203 20.9974 24.7203C20.4826 24.5202 19.9031 24.7753 19.7031 25.2901L21.5672 26.0146ZM13.4321 25.2901C13.232 24.7753 12.6525 24.5202 12.1377 24.7203C11.623 24.9203 11.3679 25.4998 11.5679 26.0146L13.4321 25.2901ZM19.7031 25.2901C19.2723 26.3983 18.0669 27.2672 16.5676 27.2672V29.2672C18.824 29.2672 20.8138 27.9532 21.5672 26.0146L19.7031 25.2901ZM16.5676 27.2672C15.0682 27.2672 13.8628 26.3983 13.4321 25.2901L11.5679 26.0146C12.3214 27.9532 14.3111 29.2672 16.5676 29.2672V27.2672Z" fill="#28303F"/>
</svg>
