<svg width="16" height="14" viewBox="0 0 16 14" fill="none" xmlns="http://www.w3.org/2000/svg">
    <path fill-rule="evenodd" clip-rule="evenodd" d="M4.08468 1.69473C2.9924 1.86044 1.99984 2.77792 1.99984 4.48562C1.99984 5.31572 2.34663 6.22558 2.9381 7.15979C3.52526 8.08718 4.31939 8.98487 5.13187 9.77693C5.94188 10.5666 6.75453 11.2362 7.366 11.7091C7.6168 11.903 7.83286 12.0632 7.99984 12.1842C8.16681 12.0632 8.38287 11.903 8.63367 11.7091C9.24514 11.2362 10.0578 10.5666 10.8678 9.77693C11.6803 8.98487 12.4744 8.08718 13.0616 7.15979C13.653 6.22558 13.9998 5.31572 13.9998 4.48562C13.9998 2.77792 13.0073 1.86044 11.915 1.69473C10.8058 1.52644 9.40656 2.11029 8.60551 3.85192C8.49672 4.08846 8.26019 4.24002 7.99984 4.24002C7.73949 4.24002 7.50295 4.08846 7.39416 3.85192C6.59311 2.11029 5.19391 1.52644 4.08468 1.69473ZM7.99984 13L8.37189 13.5532C8.14693 13.7045 7.85274 13.7045 7.62778 13.5532L7.99984 13ZM7.99984 2.25663C6.92307 0.782688 5.34764 0.154527 3.88469 0.376479C2.09819 0.647516 0.666504 2.16272 0.666504 4.48562C0.666504 5.67082 1.15305 6.83291 1.81157 7.87303C2.47441 8.91995 3.34695 9.89895 4.20114 10.7317C5.0578 11.5668 5.91181 12.27 6.55034 12.7638C6.87015 13.0111 7.13725 13.207 7.32536 13.3416C7.41945 13.4089 7.49387 13.461 7.54534 13.4967C7.57108 13.5145 7.59109 13.5283 7.60497 13.5377L7.62113 13.5487L7.62566 13.5518L7.62778 13.5532C7.62778 13.5532 7.62778 13.5532 7.99984 13C8.37189 13.5532 8.37189 13.5532 8.37189 13.5532L8.37401 13.5518L8.37855 13.5487L8.39471 13.5377C8.40858 13.5283 8.42859 13.5145 8.45433 13.4967C8.50581 13.461 8.58023 13.4089 8.67431 13.3416C8.86243 13.207 9.12952 13.0111 9.44934 12.7638C10.0879 12.27 10.9419 11.5668 11.7985 10.7317C12.6527 9.89895 13.5253 8.91995 14.1881 7.87303C14.8466 6.83291 15.3332 5.67082 15.3332 4.48562C15.3332 2.16272 13.9015 0.647516 12.115 0.376479C10.652 0.154527 9.0766 0.782688 7.99984 2.25663Z" fill="#1E1E1E"/>
</svg>
