<svg width="24" height="24" viewBox="0 0 24 24" fill="none" xmlns="http://www.w3.org/2000/svg">
    <path d="M6.29367 4.70164C8.96048 2.76409 10.2939 1.79531 11.8167 1.73945C11.9389 1.73496 12.0611 1.73496 12.1833 1.73945C13.7061 1.79531 15.0395 2.76409 17.7063 4.70164C20.3732 6.6392 21.7066 7.60797 22.2303 9.03899C22.2723 9.15379 22.3101 9.27009 22.3436 9.38765C22.761 10.8532 22.2517 12.4207 21.2331 15.5557L19.512 20.8525C19.2386 21.6941 18.4543 22.2639 17.5694 22.2639C16.4412 22.2639 15.5267 21.3494 15.5267 20.2213V17.4724C15.5267 16.4138 14.6686 15.5557 13.6101 15.5557H10.3899C9.3314 15.5557 8.47329 16.4138 8.47329 17.4724V20.2213C8.47329 21.3494 7.55877 22.2639 6.43065 22.2639C5.54572 22.2639 4.76144 21.6941 4.48798 20.8525L2.76696 15.5557C1.74832 12.4207 1.23901 10.8532 1.65645 9.38765C1.68994 9.27009 1.72773 9.15379 1.76974 9.03899C2.29344 7.60797 3.62685 6.6392 6.29367 4.70164Z" stroke="#263238" stroke-width="1.5"/>
</svg>
