<svg width="21" height="22" viewBox="0 0 21 22" fill="none" xmlns="http://www.w3.org/2000/svg">
    <path d="M4.79367 3.7014C7.46048 1.76384 8.79389 0.795065 10.3167 0.739201C10.4389 0.734719 10.5611 0.734719 10.6833 0.739201C12.2061 0.795065 13.5395 1.76384 16.2063 3.7014C18.8732 5.63895 20.2066 6.60773 20.7303 8.03875C20.7723 8.15355 20.8101 8.26984 20.8436 8.38741C21.261 9.85295 20.7517 11.4205 19.7331 14.5555L18.012 19.8523C17.7386 20.6939 16.9543 21.2637 16.0694 21.2637C14.9412 21.2637 14.0267 20.3492 14.0267 19.2211V16.4721C14.0267 15.4136 13.1686 14.5555 12.1101 14.5555H8.88993C7.8314 14.5555 6.97329 15.4136 6.97329 16.4721V19.2211C6.97329 20.3492 6.05877 21.2637 4.93065 21.2637C4.04572 21.2637 3.26144 20.6939 2.98798 19.8523L1.26696 14.5555C0.248322 11.4205 -0.260994 9.85295 0.156451 8.38741C0.189938 8.26984 0.227726 8.15355 0.269737 8.03875C0.793443 6.60773 2.12685 5.63895 4.79367 3.7014Z" fill="#CE1126"/>
</svg>
