<svg width="28" height="19" viewBox="0 0 28 19" fill="none" xmlns="http://www.w3.org/2000/svg">
<path d="M0.171387 1.65558C0.171387 0.933502 0.778424 0.348145 1.52724 0.348145H25.9326C26.6815 0.348145 27.2885 0.933504 27.2885 1.65558C27.2885 2.37765 26.6815 2.96301 25.9326 2.96301L1.52724 2.96301C0.778424 2.96301 0.171387 2.37765 0.171387 1.65558Z" fill="#1E1E1E"/>
<path d="M0.171387 9.50017C0.171387 8.7781 0.778424 8.19274 1.52724 8.19274L25.9326 8.19274C26.6815 8.19274 27.2885 8.7781 27.2885 9.50017C27.2885 10.2222 26.6815 10.8076 25.9326 10.8076L1.52724 10.8076C0.778424 10.8076 0.171387 10.2222 0.171387 9.50017Z" fill="#1E1E1E"/>
<path d="M1.52724 16.0373C0.778424 16.0373 0.171387 16.6227 0.171387 17.3448C0.171387 18.0668 0.778424 18.6522 1.52724 18.6522L25.9326 18.6522C26.6815 18.6522 27.2885 18.0668 27.2885 17.3448C27.2885 16.6227 26.6815 16.0373 25.9326 16.0373L1.52724 16.0373Z" fill="#1E1E1E"/>
</svg>
