<svg width="33" height="33" viewBox="0 0 33 33" fill="none" xmlns="http://www.w3.org/2000/svg">
    <path d="M3.16992 8.65558C3.16992 7.9335 3.77696 7.34814 4.52578 7.34814H28.9312C29.68 7.34814 30.287 7.9335 30.287 8.65558C30.287 9.37765 29.68 9.96301 28.9312 9.96301L4.52578 9.96301C3.77696 9.96301 3.16992 9.37765 3.16992 8.65558Z" fill="#1E1E1E"/>
    <path d="M3.16992 16.5002C3.16992 15.7781 3.77696 15.1927 4.52578 15.1927L28.9312 15.1927C29.68 15.1927 30.287 15.7781 30.287 16.5002C30.287 17.2222 29.68 17.8076 28.9312 17.8076L4.52578 17.8076C3.77696 17.8076 3.16992 17.2222 3.16992 16.5002Z" fill="#1E1E1E"/>
    <path d="M4.52578 23.0373C3.77696 23.0373 3.16992 23.6227 3.16992 24.3448C3.16992 25.0668 3.77696 25.6522 4.52578 25.6522L28.9312 25.6522C29.68 25.6522 30.287 25.0668 30.287 24.3448C30.287 23.6227 29.68 23.0373 28.9312 23.0373L4.52578 23.0373Z" fill="#1E1E1E"/>
</svg>
