<svg width="22" height="22" viewBox="0 0 22 22" fill="none" xmlns="http://www.w3.org/2000/svg">
    <path d="M21 9.48682C21 6.68655 21 5.28642 20.455 4.21686C19.9757 3.27605 19.2108 2.51115 18.27 2.03178C17.2004 1.48682 15.8003 1.48682 13 1.48682H9C6.19974 1.48682 4.79961 1.48682 3.73005 2.03178C2.78924 2.51115 2.02433 3.27605 1.54497 4.21686C1 5.28642 1 6.68655 1 9.48682V13.7152C1 15.7982 2.68863 17.4868 4.77166 17.4868H5.37341C6.15251 17.4868 6.68525 18.2737 6.3959 18.9971C5.98743 20.0182 7.1635 20.9415 8.05848 20.3022L10.6692 18.4374C10.6958 18.4184 10.7092 18.4088 10.7222 18.3996C11.5562 17.8119 12.5501 17.4935 13.5703 17.4869C13.5863 17.4868 13.6027 17.4868 13.6354 17.4868H14.1842C15.8734 17.4868 16.7179 17.4868 17.4069 17.2848C19.041 16.8057 20.3188 15.5278 20.798 13.8937C21 13.2047 21 12.3602 21 10.671V9.48682Z" fill="#CE1126"/>
    <path d="M10.6692 18.4374L11.1051 19.0477L10.6692 18.4374ZM10.7222 18.3996L10.2902 17.7865L10.7222 18.3996ZM13.5703 17.4869L13.5751 18.2369L13.5703 17.4869ZM6.3959 18.9971L7.09226 19.2756L6.3959 18.9971ZM8.05848 20.3022L7.62255 19.6919H7.62255L8.05848 20.3022ZM20.798 13.8937L21.5177 14.1047L20.798 13.8937ZM17.4069 17.2848L17.6179 18.0045L17.4069 17.2848ZM3.73005 2.03178L4.07054 2.70004L3.73005 2.03178ZM1.54497 4.21686L2.21322 4.55736L1.54497 4.21686ZM18.27 2.03178L17.9295 2.70004L18.27 2.03178ZM20.455 4.21686L19.7868 4.55736L20.455 4.21686ZM6.46967 8.95649C6.17678 9.24938 6.17678 9.72425 6.46967 10.0171C6.76256 10.31 7.23744 10.31 7.53033 10.0171L6.46967 8.95649ZM15.5303 10.0171C15.8232 9.72425 15.8232 9.24938 15.5303 8.95649C15.2374 8.66359 14.7626 8.66359 14.4697 8.95649L15.5303 10.0171ZM11 9.48682L10.2885 9.72399L11 9.48682ZM13 0.736816H9V2.23682H13V0.736816ZM0.25 9.48682V13.7152H1.75V9.48682H0.25ZM21.75 10.671V9.48682H20.25V10.671H21.75ZM4.77166 18.2368H5.37341V16.7368H4.77166V18.2368ZM8.49441 20.9125L11.1051 19.0477L10.2333 17.8271L7.62255 19.6919L8.49441 20.9125ZM13.6354 18.2368H14.1842V16.7368H13.6354V18.2368ZM11.1051 19.0477C11.1325 19.0281 11.1436 19.0202 11.1543 19.0127L10.2902 17.7865C10.2747 17.7975 10.2592 17.8086 10.2333 17.8271L11.1051 19.0477ZM13.6354 16.7368C13.6036 16.7368 13.5845 16.7368 13.5655 16.7369L13.5751 18.2369C13.5882 18.2368 13.6018 18.2368 13.6354 18.2368V16.7368ZM11.1543 19.0127C11.8632 18.5132 12.7079 18.2425 13.5751 18.2369L13.5655 16.7369C12.3922 16.7444 11.2493 17.1107 10.2902 17.7865L11.1543 19.0127ZM5.37341 18.2368C5.62191 18.2368 5.79183 18.4878 5.69954 18.7185L7.09226 19.2756C7.57867 18.0596 6.68311 16.7368 5.37341 16.7368V18.2368ZM5.69954 18.7185C5.01288 20.4352 6.9899 21.9871 8.49441 20.9125L7.62255 19.6919C7.33709 19.8958 6.96197 19.6013 7.09226 19.2756L5.69954 18.7185ZM20.25 10.671C20.25 12.4129 20.2424 13.1231 20.0783 13.6826L21.5177 14.1047C21.7576 13.2864 21.75 12.3074 21.75 10.671H20.25ZM14.1842 18.2368C15.8206 18.2368 16.7996 18.2445 17.6179 18.0045L17.1958 16.5651C16.6363 16.7292 15.9261 16.7368 14.1842 16.7368V18.2368ZM20.0783 13.6826C19.671 15.0716 18.5848 16.1578 17.1958 16.5651L17.6179 18.0045C19.4971 17.4535 20.9667 15.9839 21.5177 14.1047L20.0783 13.6826ZM0.25 13.7152C0.25 16.2124 2.27441 18.2368 4.77166 18.2368V16.7368C3.10284 16.7368 1.75 15.384 1.75 13.7152H0.25ZM9 0.736816C7.61224 0.736816 6.52632 0.736233 5.65494 0.807428C4.77479 0.879339 4.04768 1.02819 3.38955 1.36353L4.07054 2.70004C4.48197 2.49041 4.9897 2.36678 5.77708 2.30245C6.57322 2.2374 7.58749 2.23682 9 2.23682V0.736816ZM1.75 9.48682C1.75 8.07431 1.75058 7.06004 1.81563 6.2639C1.87996 5.47652 2.00359 4.96879 2.21322 4.55736L0.876713 3.87637C0.541378 4.5345 0.392522 5.26161 0.320612 6.14175C0.249417 7.01314 0.25 8.09906 0.25 9.48682H1.75ZM3.38955 1.36353C2.30762 1.9148 1.42798 2.79444 0.876713 3.87637L2.21322 4.55736C2.62068 3.75767 3.27085 3.1075 4.07054 2.70004L3.38955 1.36353ZM13 2.23682C14.4125 2.23682 15.4268 2.2374 16.2229 2.30245C17.0103 2.36678 17.518 2.49041 17.9295 2.70004L18.6104 1.36353C17.9523 1.02819 17.2252 0.879339 16.3451 0.807428C15.4737 0.736233 14.3878 0.736816 13 0.736816V2.23682ZM21.75 9.48682C21.75 8.09906 21.7506 7.01314 21.6794 6.14175C21.6075 5.26161 21.4586 4.5345 21.1233 3.87637L19.7868 4.55736C19.9964 4.96879 20.12 5.47652 20.1844 6.2639C20.2494 7.06004 20.25 8.07431 20.25 9.48682H21.75ZM17.9295 2.70004C18.7291 3.1075 19.3793 3.75767 19.7868 4.55736L21.1233 3.87637C20.572 2.79444 19.6924 1.9148 18.6104 1.36353L17.9295 2.70004ZM7.53033 10.0171L8.29426 9.25322L7.2336 8.19255L6.46967 8.95649L7.53033 10.0171ZM14.7664 10.7811L15.5303 10.0171L14.4697 8.95649L13.7057 9.72042L14.7664 10.7811ZM10.2885 9.72399C10.9242 11.6312 13.3448 12.2026 14.7664 10.7811L13.7057 9.72042C13.0726 10.3535 11.9946 10.099 11.7115 9.24965L10.2885 9.72399ZM8.29426 9.25322C8.92735 8.62012 10.0054 8.87461 10.2885 9.72399L11.7115 9.24965C11.0758 7.34241 8.65517 6.77099 7.2336 8.19255L8.29426 9.25322Z" fill="white"/>
</svg>
