<svg width="23" height="22" viewBox="0 0 23 22" fill="none" xmlns="http://www.w3.org/2000/svg">
    <path d="M11.1692 18.4374L11.6051 19.0477L11.1692 18.4374ZM11.2222 18.3997L10.7902 17.7866L11.2222 18.3997ZM14.0703 17.4869L14.0751 18.2369L14.0703 17.4869ZM6.8959 18.9971L7.59226 19.2756L6.8959 18.9971ZM8.55848 20.3022L8.12255 19.6919H8.12255L8.55848 20.3022ZM21.298 13.8937L22.0177 14.1047L21.298 13.8937ZM17.9069 17.2848L18.1179 18.0045L17.9069 17.2848ZM4.23005 2.03181L4.57054 2.70007L4.23005 2.03181ZM2.04497 4.21689L2.71322 4.55739L2.04497 4.21689ZM18.77 2.03181L18.4295 2.70007L18.77 2.03181ZM20.955 4.21689L20.2868 4.55739L20.955 4.21689ZM6.96967 8.95652C6.67678 9.24941 6.67678 9.72428 6.96967 10.0172C7.26256 10.3101 7.73744 10.3101 8.03033 10.0172L6.96967 8.95652ZM16.0303 10.0172C16.3232 9.72428 16.3232 9.24941 16.0303 8.95652C15.7374 8.66362 15.2626 8.66362 14.9697 8.95652L16.0303 10.0172ZM11.5 9.48685L10.7885 9.72402L11.5 9.48685ZM13.5 0.736847H9.5V2.23685H13.5V0.736847ZM0.75 9.48685V13.7152H2.25V9.48685H0.75ZM22.25 10.6711V9.48685H20.75V10.6711H22.25ZM5.27166 18.2368H5.87341V16.7368H5.27166V18.2368ZM8.99441 20.9125L11.6051 19.0477L10.7333 17.8271L8.12255 19.6919L8.99441 20.9125ZM14.1354 18.2368H14.6842V16.7368H14.1354V18.2368ZM11.6051 19.0477C11.6325 19.0281 11.6436 19.0203 11.6543 19.0127L10.7902 17.7866C10.7747 17.7975 10.7592 17.8086 10.7333 17.8271L11.6051 19.0477ZM14.1354 16.7368C14.1036 16.7368 14.0845 16.7368 14.0655 16.737L14.0751 18.2369C14.0882 18.2369 14.1018 18.2368 14.1354 18.2368V16.7368ZM11.6543 19.0127C12.3632 18.5132 13.2079 18.2425 14.0751 18.2369L14.0655 16.737C12.8922 16.7445 11.7493 17.1107 10.7902 17.7866L11.6543 19.0127ZM5.87341 18.2368C6.12191 18.2368 6.29183 18.4878 6.19954 18.7186L7.59226 19.2756C8.07867 18.0596 7.18311 16.7368 5.87341 16.7368V18.2368ZM6.19954 18.7186C5.51288 20.4352 7.4899 21.9872 8.99441 20.9125L8.12255 19.6919C7.83709 19.8958 7.46197 19.6014 7.59226 19.2756L6.19954 18.7186ZM20.75 10.6711C20.75 12.413 20.7424 13.1231 20.5783 13.6827L22.0177 14.1047C22.2576 13.2864 22.25 12.3074 22.25 10.6711H20.75ZM14.6842 18.2368C16.3206 18.2368 17.2996 18.2445 18.1179 18.0045L17.6958 16.5651C17.1363 16.7292 16.4261 16.7368 14.6842 16.7368V18.2368ZM20.5783 13.6827C20.171 15.0717 19.0848 16.1579 17.6958 16.5651L18.1179 18.0045C19.9971 17.4535 21.4667 15.9839 22.0177 14.1047L20.5783 13.6827ZM0.75 13.7152C0.75 16.2124 2.77441 18.2368 5.27166 18.2368V16.7368C3.60284 16.7368 2.25 15.384 2.25 13.7152H0.75ZM9.5 0.736847C8.11224 0.736847 7.02632 0.736264 6.15494 0.807459C5.27479 0.879369 4.54768 1.02823 3.88955 1.36356L4.57054 2.70007C4.98197 2.49044 5.4897 2.36681 6.27708 2.30248C7.07322 2.23743 8.08749 2.23685 9.5 2.23685V0.736847ZM2.25 9.48685C2.25 8.07434 2.25058 7.06007 2.31563 6.26393C2.37996 5.47655 2.50359 4.96882 2.71322 4.55739L1.37671 3.8764C1.04138 4.53453 0.892522 5.26164 0.820612 6.14178C0.749417 7.01317 0.75 8.09909 0.75 9.48685H2.25ZM3.88955 1.36356C2.80762 1.91483 1.92798 2.79447 1.37671 3.8764L2.71322 4.55739C3.12068 3.7577 3.77085 3.10753 4.57054 2.70007L3.88955 1.36356ZM13.5 2.23685C14.9125 2.23685 15.9268 2.23743 16.7229 2.30248C17.5103 2.36681 18.018 2.49044 18.4295 2.70007L19.1104 1.36356C18.4523 1.02823 17.7252 0.879369 16.8451 0.807459C15.9737 0.736264 14.8878 0.736847 13.5 0.736847V2.23685ZM22.25 9.48685C22.25 8.09909 22.2506 7.01317 22.1794 6.14178C22.1075 5.26164 21.9586 4.53453 21.6233 3.8764L20.2868 4.55739C20.4964 4.96882 20.62 5.47655 20.6844 6.26393C20.7494 7.06007 20.75 8.07434 20.75 9.48685H22.25ZM18.4295 2.70007C19.2291 3.10753 19.8793 3.7577 20.2868 4.55739L21.6233 3.8764C21.072 2.79447 20.1924 1.91483 19.1104 1.36356L18.4295 2.70007ZM8.03033 10.0172L8.79426 9.25325L7.7336 8.19259L6.96967 8.95652L8.03033 10.0172ZM15.2664 10.7811L16.0303 10.0172L14.9697 8.95652L14.2057 9.72045L15.2664 10.7811ZM10.7885 9.72402C11.4242 11.6312 13.8448 12.2027 15.2664 10.7811L14.2057 9.72045C13.5726 10.3535 12.4946 10.0991 12.2115 9.24968L10.7885 9.72402ZM8.79426 9.25325C9.42735 8.62015 10.5054 8.87464 10.7885 9.72402L12.2115 9.24968C11.5758 7.34244 9.15517 6.77102 7.7336 8.19259L8.79426 9.25325Z" fill="#263238"/>
</svg>
