<svg width="16" height="16" viewBox="0 0 16 16" fill="none" xmlns="http://www.w3.org/2000/svg">
    <path fill-rule="evenodd" clip-rule="evenodd" d="M12.6665 6.00033C14.1393 6.00033 15.3332 4.80642 15.3332 3.33366C15.3332 1.8609 14.1393 0.666992 12.6665 0.666992C11.1937 0.666992 9.99984 1.8609 9.99984 3.33366C9.99984 3.52525 10.02 3.71213 10.0584 3.89227L5.34442 6.24927C4.85555 5.68823 4.13577 5.33366 3.33317 5.33366C1.86041 5.33366 0.666504 6.52757 0.666504 8.00033C0.666504 9.47308 1.86041 10.667 3.33317 10.667C4.21852 10.667 5.00309 10.2355 5.48811 9.57142L10.0671 12.0691C10.0231 12.2613 9.99984 12.4614 9.99984 12.667C9.99984 14.1398 11.1937 15.3337 12.6665 15.3337C14.1393 15.3337 15.3332 14.1398 15.3332 12.667C15.3332 11.1942 14.1393 10.0003 12.6665 10.0003C11.8784 10.0003 11.1702 10.3422 10.682 10.8857L5.98071 8.32133C5.99334 8.21609 5.99984 8.10897 5.99984 8.00033C5.99984 7.80869 5.97962 7.62177 5.94121 7.44159L10.6552 5.08461C11.144 5.64571 11.8639 6.00033 12.6665 6.00033ZM12.6665 4.66699C13.4029 4.66699 13.9998 4.07004 13.9998 3.33366C13.9998 2.59728 13.4029 2.00033 12.6665 2.00033C11.9301 2.00033 11.3332 2.59728 11.3332 3.33366C11.3332 4.07004 11.9301 4.66699 12.6665 4.66699ZM3.33317 9.33366C4.06955 9.33366 4.6665 8.7367 4.6665 8.00033C4.6665 7.26395 4.06955 6.66699 3.33317 6.66699C2.59679 6.66699 1.99984 7.26395 1.99984 8.00033C1.99984 8.7367 2.59679 9.33366 3.33317 9.33366ZM13.9998 12.667C13.9998 13.4034 13.4029 14.0003 12.6665 14.0003C11.9301 14.0003 11.3332 13.4034 11.3332 12.667C11.3332 11.9306 11.9301 11.3337 12.6665 11.3337C13.4029 11.3337 13.9998 11.9306 13.9998 12.667Z" fill="#1E1E1E"/>
</svg>
