<svg width="14" height="16" viewBox="0 0 14 16" fill="none" xmlns="http://www.w3.org/2000/svg">
    <path fill-rule="evenodd" clip-rule="evenodd" d="M6.78934 2.1068C6.92619 2.06119 7.07414 2.06119 7.21098 2.1068L11.8776 3.66236C12.1499 3.7531 12.3335 4.00786 12.3335 4.29481V9.3338C12.3335 10.7405 11.4252 11.7984 10.2236 12.5875C9.03007 13.3713 7.67976 13.796 7.10964 13.9515C7.03624 13.9715 6.96408 13.9715 6.89068 13.9515C6.32057 13.796 4.97025 13.3713 3.77674 12.5875C2.57517 11.7984 1.66683 10.7405 1.66683 9.3338V4.29481C1.66683 4.00786 1.85045 3.7531 2.12268 3.66236L6.78934 2.1068ZM7.63262 0.841891C7.22209 0.705047 6.77824 0.705046 6.36771 0.841891L1.70104 2.39745C0.884356 2.66967 0.333496 3.43395 0.333496 4.29481V9.3338C0.333496 11.4001 1.68682 12.8102 3.04485 13.702C4.41093 14.5991 5.91815 15.0683 6.53978 15.2378C6.84292 15.3205 7.15741 15.3205 7.46055 15.2378C8.08218 15.0683 9.5894 14.5991 10.9555 13.702C12.3135 12.8102 13.6668 11.4001 13.6668 9.3338V4.29481C13.6668 3.43395 13.116 2.66968 12.2993 2.39745L7.63262 0.841891ZM6.3335 4.66699V5.06037C5.58694 5.30697 5.00016 5.95775 5.00016 6.80985C5.00016 7.90455 5.96864 8.66699 7.00016 8.66699C7.4414 8.66699 7.66686 8.97061 7.66686 9.19087C7.66686 9.41113 7.44143 9.71468 7.00019 9.71468C6.75306 9.71468 6.5553 9.60879 6.44358 9.47598C6.20655 9.19424 5.786 9.15798 5.50425 9.39501C5.2225 9.63203 5.18625 10.0526 5.42327 10.3343C5.65932 10.6149 5.97552 10.8252 6.3335 10.9424V11.3337C6.3335 11.7019 6.63197 12.0004 7.00016 12.0004C7.36835 12.0004 7.66683 11.7019 7.66683 11.3337V10.9404C8.41339 10.6938 9.00019 10.043 9.00019 9.19087C9.00019 8.09617 8.03168 7.33366 7.00016 7.33366C6.55892 7.33366 6.3335 7.03011 6.3335 6.80985C6.3335 6.58959 6.55892 6.28604 7.00016 6.28604C7.24729 6.28604 7.44505 6.39193 7.55677 6.52474C7.7938 6.80649 8.21435 6.84274 8.4961 6.60572C8.77785 6.36869 8.8141 5.94814 8.57708 5.66639C8.34102 5.38579 8.02482 5.17554 7.66683 5.05833V4.66699C7.66683 4.2988 7.36835 4.00033 7.00016 4.00033C6.63197 4.00033 6.3335 4.2988 6.3335 4.66699Z" fill="#1E1E1E"/>
</svg>
