<svg width="155" height="23" viewBox="0 0 155 23" fill="none" xmlns="http://www.w3.org/2000/svg">
<mask id="mask0_4_21052" style="mask-type:alpha" maskUnits="userSpaceOnUse" x="0" y="0" width="31" height="23">
<path d="M30.6667 0H0V23H30.6667V0Z" fill="white"/>
</mask>
<g mask="url(#mask0_4_21052)">
<mask id="mask1_4_21052" style="mask-type:alpha" maskUnits="userSpaceOnUse" x="0" y="0" width="31" height="23">
<path d="M30.6667 0H0V23H30.6667V0Z" fill="white"/>
</mask>
<g mask="url(#mask1_4_21052)">
<path d="M30.6667 0H0V23H30.6667V0Z" fill="#C51918"/>
<path d="M13.4167 0H0V9.58333H13.4167V0Z" fill="#002D64"/>
<path d="M30.6662 13.4165H17.2495V22.9998H30.6662V13.4165Z" fill="#002D64"/>
<path fill-rule="evenodd" clip-rule="evenodd" d="M12.4583 0H18.2083V8.625H30.6667V14.375H18.2083V23H12.4583V14.375H0V8.625H12.4583V0Z" fill="#F7FCFF"/>
<path d="M14.5526 14.1562C14.5519 14.1561 14.5513 14.1559 14.5508 14.1558C14.5514 14.1559 14.552 14.1561 14.5526 14.1562ZM13.2103 9.71143C13.2407 9.86588 13.2663 9.99133 13.2872 10.0878C13.3219 10.0388 13.3594 9.9881 13.3988 9.93542L13.5065 10.0272C13.4102 10.1558 13.3263 10.272 13.255 10.3757C13.3266 10.3525 13.4103 10.3266 13.5064 10.2963C13.3855 10.4739 13.2472 10.5627 13.0998 10.6163C13.0535 10.6905 13.0191 10.754 12.9949 10.8071L12.9387 10.9415C13.0176 10.8936 13.1204 10.8293 13.247 10.7486C13.1599 10.9984 13.0123 11.1249 12.8452 11.2208C12.8377 11.2618 12.8281 11.3052 12.8199 11.3483L12.8145 11.3775C12.8934 11.3297 12.9959 11.2655 13.1222 11.185C13.0351 11.4348 12.8875 11.5613 12.7205 11.6573L12.7875 11.6145C12.7845 11.6686 12.7839 11.7222 12.7856 11.7755C12.8593 11.7137 12.9568 11.6261 13.0797 11.5135C13.0372 11.7747 12.9139 11.9249 12.766 12.0484L12.8076 12.0102C12.8177 12.0743 12.8312 12.1378 12.8479 12.2006L12.8629 12.259C12.9082 12.1767 12.9674 12.0654 13.0404 11.9251C13.0899 12.185 13.0253 12.3684 12.9286 12.535L12.9403 12.5129C12.9521 12.5488 12.9641 12.5841 12.9764 12.6189C12.9996 12.5487 13.0264 12.4651 13.0567 12.369C13.1341 12.5731 13.1261 12.7393 13.0837 12.8928C13.1288 13.0028 13.1777 13.1052 13.2286 13.2003C13.227 13.1104 13.2229 12.9964 13.2168 12.8576C13.3896 13.058 13.4254 13.2491 13.4249 13.4417L13.3437 13.3971C13.4301 13.5321 13.5211 13.6467 13.6148 13.7383C13.6125 13.6506 13.6085 13.5424 13.6028 13.4126C13.7431 13.5753 13.7931 13.7318 13.8067 13.8881C13.8248 13.902 13.8444 13.913 13.864 13.923C13.9294 13.9565 14.0052 13.9882 14.0931 14.0195C14.1101 13.9256 14.131 13.7797 14.1568 13.5842C14.2644 13.765 14.2877 13.925 14.2757 14.0783C14.2904 14.0835 14.3086 14.0889 14.3272 14.0943C14.3937 14.1136 14.4616 14.1322 14.5508 14.1558C14.5016 14.1428 14.7188 14.1999 14.7639 14.2122C14.9228 14.2553 15.0115 14.285 15.0662 14.3178C15.0894 14.3318 15.1074 14.3469 15.1203 14.3659L15.0088 14.4523C15.0095 14.4533 15.006 14.4504 14.9986 14.4459C14.9587 14.422 14.8757 14.3942 14.73 14.3546C14.6974 14.3458 14.5738 14.3132 14.5279 14.3011L14.5173 14.298L14.521 14.2993C14.4292 14.2751 14.3595 14.256 14.291 14.2361C14.137 14.2829 13.9766 14.2985 13.776 14.2381C13.866 14.2026 13.9446 14.1712 14.012 14.1438C13.9335 14.1161 13.8654 14.0867 13.8045 14.0556L13.7947 14.0502C13.6465 14.1012 13.4833 14.1191 13.2779 14.0572C13.4148 14.0033 13.5256 13.9587 13.6101 13.9233C13.4825 13.8204 13.3617 13.6802 13.2489 13.5092L13.2898 13.5217C13.1045 13.469 12.9307 13.382 12.7857 13.1607C12.9144 13.2037 13.021 13.2385 13.1054 13.265C13.0658 13.1923 13.028 13.1149 12.9916 13.0338L13.0173 13.0417C12.8319 12.989 12.6582 12.902 12.5132 12.6806C12.6777 12.7357 12.8061 12.7773 12.8982 12.8053C12.8635 12.7186 12.8318 12.6286 12.8018 12.5354L12.8864 12.578C12.713 12.494 12.557 12.3781 12.4526 12.1349C12.5611 12.1939 12.6528 12.2429 12.7276 12.2819L12.7153 12.2407C12.6961 12.1686 12.6809 12.0957 12.6697 12.0219L12.7139 12.0686C12.5797 11.9303 12.4728 11.7681 12.4579 11.5039C12.532 11.5877 12.5958 11.659 12.6495 11.718L12.6496 11.6108L12.7074 11.678C12.5733 11.5397 12.5268 11.3823 12.5119 11.1181C12.5792 11.1942 12.6381 11.2601 12.6886 11.3158C12.6995 11.243 12.7169 11.171 12.738 11.0987L12.7682 11.134C12.6341 10.9957 12.561 10.7924 12.546 10.5282C12.6689 10.6702 12.7635 10.7762 12.8297 10.8462L12.8709 10.7429L12.8728 10.7378L12.8443 10.6951C12.7725 10.544 12.8159 10.3038 12.8031 10.0773C12.8898 10.2604 12.963 10.3926 13.0227 10.4739C13.0531 10.4238 13.0885 10.3699 13.1277 10.3124L13.1351 10.3471C13.0875 10.1588 13.1137 9.94638 13.2103 9.71143Z" fill="#5AB92D"/>
<path d="M15.9005 14.1562C15.9012 14.1561 15.9018 14.1559 15.9023 14.1558C15.9017 14.1559 15.9011 14.1561 15.9005 14.1562ZM17.2429 9.71143C17.2124 9.86588 17.1868 9.99133 17.1659 10.0878C17.1312 10.0388 17.0938 9.9881 17.0543 9.93542L16.9466 10.0272C17.0429 10.1558 17.1268 10.272 17.1981 10.3757C17.1266 10.3525 17.0428 10.3266 16.9468 10.2963C17.0676 10.4739 17.2059 10.5627 17.3534 10.6163C17.3996 10.6905 17.4341 10.754 17.4583 10.8071L17.5144 10.9415C17.4355 10.8936 17.3327 10.8293 17.2061 10.7486C17.2932 10.9984 17.4408 11.1249 17.6079 11.2208C17.6154 11.2618 17.625 11.3052 17.6332 11.3483L17.6386 11.3775C17.5598 11.3297 17.4572 11.2655 17.3309 11.185C17.418 11.4348 17.5656 11.5613 17.7327 11.6573L17.6657 11.6145C17.6686 11.6686 17.6692 11.7222 17.6676 11.7755C17.5938 11.7137 17.4963 11.6261 17.3735 11.5135C17.4159 11.7747 17.5393 11.9249 17.6871 12.0484L17.6455 12.0102C17.6354 12.0743 17.6219 12.1378 17.6052 12.2006L17.5903 12.259C17.5449 12.1767 17.4857 12.0654 17.4127 11.9251C17.3633 12.185 17.4278 12.3684 17.5245 12.535L17.5128 12.5129C17.501 12.5488 17.489 12.5841 17.4768 12.6189C17.4535 12.5487 17.4267 12.4651 17.3964 12.369C17.319 12.5731 17.327 12.7393 17.3694 12.8928C17.3243 13.0028 17.2754 13.1052 17.2245 13.2003C17.2261 13.1104 17.2302 12.9964 17.2363 12.8576C17.0635 13.058 17.0277 13.2491 17.0282 13.4417L17.1094 13.3971C17.023 13.5321 16.932 13.6467 16.8383 13.7383C16.8406 13.6506 16.8446 13.5424 16.8503 13.4126C16.71 13.5753 16.66 13.7318 16.6465 13.8881C16.6283 13.902 16.6087 13.913 16.5891 13.923C16.5237 13.9565 16.4479 13.9882 16.36 14.0195C16.343 13.9256 16.3221 13.7797 16.2964 13.5842C16.1887 13.765 16.1654 13.925 16.1774 14.0783C16.1627 14.0835 16.1445 14.0889 16.1259 14.0943C16.0595 14.1136 15.9916 14.1322 15.9023 14.1558C15.9515 14.1428 15.7344 14.1999 15.6892 14.2122C15.5303 14.2553 15.4416 14.285 15.3869 14.3178C15.3637 14.3318 15.3458 14.3469 15.3328 14.3659L15.4443 14.4523C15.4436 14.4533 15.4471 14.4504 15.4546 14.4459C15.4944 14.422 15.5774 14.3942 15.7232 14.3546C15.7557 14.3458 15.8793 14.3132 15.9252 14.3011L15.9358 14.298L15.9321 14.2993C16.024 14.2751 16.0937 14.256 16.1621 14.2361C16.3162 14.2829 16.4765 14.2985 16.6772 14.2381C16.5872 14.2026 16.5085 14.1712 16.4411 14.1438C16.5197 14.1161 16.5878 14.0867 16.6487 14.0556L16.6585 14.0502C16.8066 14.1012 16.9698 14.1191 17.1752 14.0572C17.0383 14.0033 16.9276 13.9587 16.843 13.9233C16.9706 13.8204 17.0915 13.6802 17.2042 13.5092L17.1633 13.5217C17.3486 13.469 17.5224 13.382 17.6674 13.1607C17.5387 13.2037 17.4322 13.2385 17.3478 13.265C17.3873 13.1923 17.4252 13.1149 17.4615 13.0338L17.4359 13.0417C17.6212 12.989 17.795 12.902 17.94 12.6806C17.7754 12.7357 17.6471 12.7773 17.5549 12.8053C17.5896 12.7186 17.6213 12.6286 17.6514 12.5354L17.5667 12.578C17.7401 12.494 17.8961 12.3781 18.0005 12.1349C17.892 12.1939 17.8003 12.2429 17.7255 12.2819L17.7378 12.2407C17.757 12.1686 17.7722 12.0957 17.7834 12.0219L17.7392 12.0686C17.8734 11.9303 17.9804 11.7681 17.9953 11.5039C17.9212 11.5877 17.8573 11.659 17.8036 11.718L17.8035 11.6108L17.7457 11.678C17.8799 11.5397 17.9263 11.3823 17.9412 11.1181C17.8739 11.1942 17.815 11.2601 17.7646 11.3158C17.7536 11.243 17.7363 11.171 17.7152 11.0987L17.6849 11.134C17.819 10.9957 17.8922 10.7924 17.9071 10.5282C17.7842 10.6702 17.6896 10.7762 17.6234 10.8462L17.5822 10.7429L17.5803 10.7378L17.6088 10.6951C17.6807 10.544 17.6372 10.3038 17.65 10.0773C17.5633 10.2604 17.4901 10.3926 17.4304 10.4739C17.4 10.4238 17.3646 10.3699 17.3254 10.3124L17.318 10.3471C17.3656 10.1588 17.3394 9.94638 17.2429 9.71143Z" fill="#5AB92D"/>
<path d="M12.6989 8.92766C13.0819 8.65835 13.7841 8.42586 14.1453 8.42586C14.1471 8.42586 14.151 8.42499 14.1612 8.42079C14.1912 8.40838 14.389 8.28582 14.4014 8.27872C14.6568 8.13257 14.9239 8.05566 15.2878 8.05566V8.69455C15.0265 8.69455 14.8558 8.74371 14.6846 8.84169C14.7144 8.82463 14.4591 8.98281 14.3777 9.01645C14.302 9.04778 14.2259 9.06475 14.1453 9.06475C13.9033 9.06475 13.3153 9.25944 13.0285 9.46109C12.9254 9.53356 12.935 9.51144 12.9381 9.55464C12.9497 9.71174 12.9378 9.80778 12.8412 9.93043C12.8286 9.9464 12.8086 10.0343 12.8069 10.1884L12.208 10.1808C12.2108 9.92926 12.249 9.73077 12.3396 9.58158C12.3264 9.32362 12.4171 9.12581 12.6989 8.92766Z" fill="#002D64"/>
<path d="M13.0192 9.16672L12.9531 9.06016C13.2606 8.84317 13.5473 8.7337 13.8133 8.7337C13.9014 8.7337 14.0019 8.71025 14.1188 8.66512C14.1971 8.63487 14.2773 8.59749 14.385 8.54274C14.7752 8.3444 14.7863 8.33936 14.8894 8.33936H15.2426V8.46713H14.8894C14.8148 8.46713 14.7906 8.47808 14.4365 8.65809C14.3256 8.71447 14.2423 8.75331 14.1596 8.78526C14.0308 8.83503 13.9174 8.86148 13.8133 8.86148C13.5732 8.86148 13.3085 8.96257 13.0192 9.16672Z" fill="#EBCA5E"/>
<path d="M17.7274 8.92766C17.3444 8.65835 16.6422 8.42586 16.281 8.42586C16.2792 8.42586 16.2753 8.42499 16.2651 8.42079C16.2351 8.40838 16.0372 8.28582 16.0249 8.27872C15.7695 8.13257 15.5024 8.05566 15.1385 8.05566V8.69455C15.3997 8.69455 15.5705 8.74371 15.7417 8.84169C15.7119 8.82463 15.9672 8.98281 16.0485 9.01645C16.1243 9.04778 16.2004 9.06475 16.281 9.06475C16.523 9.06475 17.111 9.25944 17.3978 9.46109C17.5008 9.53356 17.4913 9.51144 17.4881 9.55464C17.4766 9.71174 17.4885 9.80778 17.5851 9.93043C17.5977 9.9464 17.6176 10.0343 17.6193 10.1884L18.2183 10.1808C18.2155 9.92926 18.1773 9.73077 18.0867 9.58158C18.0999 9.32362 18.0092 9.12581 17.7274 8.92766Z" fill="#002D64"/>
<path d="M17.3587 9.16672L17.4248 9.06016C17.1174 8.84317 16.8307 8.7337 16.5646 8.7337C16.4765 8.7337 16.376 8.71025 16.2591 8.66512C16.1808 8.63487 16.1006 8.59749 15.9929 8.54274C15.6028 8.3444 15.5916 8.33936 15.4886 8.33936H15.1354V8.46713H15.4886C15.5631 8.46713 15.5873 8.47808 15.9414 8.65809C16.0523 8.71447 16.1356 8.75331 16.2183 8.78526C16.3472 8.83503 16.4606 8.86148 16.5646 8.86148C16.8047 8.86148 17.0694 8.96257 17.3587 9.16672Z" fill="#EBCA5E"/>
<path d="M13.2458 9.60205L13.5584 9.94189V11.3533H13.8739V11.4431L14.3357 11.6652C14.3823 11.0427 14.3331 10.6495 14.1883 10.4854C14.0435 10.3214 14.0927 10.2192 14.3357 10.1789L14.8901 10.734V9.60205H13.2458Z" fill="#002D64"/>
<path d="M16.9983 9.60205L16.6857 9.94189V11.3533H16.3702V11.4431L15.9084 11.6652C15.8619 11.0427 15.911 10.6495 16.0558 10.4854C16.2006 10.3214 16.1515 10.2192 15.9084 10.1789L15.354 10.734V9.60205H16.9983Z" fill="#D62818"/>
<path d="M14.2565 10.1553L14.2094 10.2132L15.1311 11.0652L15.1806 11.0627L15.9429 10.2107L15.8909 10.1578L15.1523 10.9833L14.2565 10.1553Z" fill="#FFC300"/>
<path d="M14.1258 10.5127L14.0657 10.5706L15.2421 11.4226L15.3054 11.4201L16.2783 10.5681L16.212 10.5152L15.2692 11.3407L14.1258 10.5127Z" fill="#FFC300"/>
<path d="M13.5854 11.9048H13.9901L14.2661 11.9891C14.3253 12.4114 14.5027 12.6226 14.7984 12.6226L14.8711 13.4336L14.5274 13.2479C14.3784 13.3137 14.2913 13.3466 14.2661 13.3466C14.2283 13.3466 13.9097 13.5253 13.9097 13.3466C13.9097 13.2275 13.8016 13.0715 13.5854 12.8788V11.9048Z" fill="#D62818"/>
<path d="M16.7876 11.9048H16.383L16.107 11.9891C16.0478 12.4114 15.8703 12.6226 15.5746 12.6226L15.5019 13.4336L15.8457 13.2479C15.9947 13.3137 16.0817 13.3466 16.107 13.3466C16.1448 13.3466 16.4633 13.5253 16.4633 13.3466C16.4633 13.2275 16.5714 13.0715 16.7876 12.8788V11.9048Z" fill="#002D64"/>
<path d="M15.9213 11.981L16.4004 11.9812C16.4003 12.3396 16.2738 12.63 16.0246 12.8266L15.7397 12.4156C15.8619 12.3193 15.9212 12.1831 15.9213 11.981Z" fill="#D62818"/>
<path d="M14.6655 10.9951V11.6672H15.2226C15.1877 12.0032 15.1703 12.2771 15.1703 12.4891C15.1703 12.701 15.1877 12.9445 15.2226 13.2195C15.3135 13.1742 15.359 13.0082 15.359 12.7215C15.359 12.4349 15.359 12.0679 15.359 11.6206L15.7991 11.6672L15.7526 11.0611H15.567C15.7573 11.3129 15.7573 11.4388 15.567 11.4388C15.2816 11.4388 14.9536 11.5126 14.8913 11.5126C14.8498 11.5126 14.7746 11.3401 14.6655 10.9951Z" fill="#D62818"/>
<path d="M15.1504 11.8076C14.9417 11.9305 14.8374 12.0919 14.8374 12.2918C14.8374 12.4918 14.8896 12.7057 14.9939 12.9337C14.9444 12.4834 14.9581 12.1984 15.035 12.0787C15.1119 11.9589 15.1504 11.8686 15.1504 11.8076Z" fill="#002D64"/>
<path d="M14.6413 12.0298C14.6295 12.1745 14.6665 12.2468 14.7522 12.2468C14.8379 12.2468 14.801 12.1745 14.6413 12.0298Z" fill="#002D64"/>
<path d="M15.7424 11.4465L15.7916 11.6175L14.9726 11.8857L14.7891 11.1231L14.9515 11.0786L15.0914 11.6597L15.7424 11.4465Z" fill="#373737"/>
<path d="M12.3057 14.7743C12.404 14.7467 12.5436 14.7467 12.7243 14.7743C12.9049 14.8018 13.0804 14.827 13.2506 14.8497C13.1978 14.9063 13.0861 14.9597 12.9156 15.01C12.7451 15.0604 12.5418 14.9818 12.3057 14.7743ZM15.1425 13.8188V14.2277C14.879 14.2277 13.856 14.368 13.6854 14.4651C13.6317 14.4957 13.6215 14.4959 13.649 14.5341L13.6675 14.5297L13.8375 14.7098C13.7672 14.7854 13.6112 14.7981 13.4511 14.7672L13.3786 14.8281C13.3541 14.7953 13.3333 14.7623 13.3159 14.7294C13.2446 14.7061 13.1765 14.673 13.1205 14.6335C13.0426 14.5788 12.9624 14.5788 12.8608 14.6387L12.7449 14.415C12.9215 14.3109 13.097 14.3109 13.2523 14.4202C13.2801 14.2973 13.3627 14.1854 13.5048 14.1044C13.7491 13.9653 14.8178 13.8188 15.1425 13.8188Z" fill="#D62818"/>
<path d="M13.5216 14.4863L13.4785 14.5477C13.2876 14.395 13.3633 14.2647 13.6555 14.1992C14.1348 14.0916 14.7358 14.0151 15.2183 14.0151V14.0918C14.7412 14.0918 14.145 14.1677 13.6703 14.2742C13.428 14.3286 13.3951 14.3852 13.5216 14.4863ZM13.7344 14.2602L13.7203 14.185C14.194 14.0841 14.7588 14.0151 15.2183 14.0151V14.0918C14.764 14.0918 14.2038 14.1602 13.7344 14.2602Z" fill="#EBCA5E"/>
<path d="M17.8809 14.7743C17.7825 14.7467 17.643 14.7467 17.4623 14.7743C17.2816 14.8018 17.1061 14.827 16.9359 14.8497C16.9888 14.9063 17.1004 14.9597 17.2709 15.01C17.4414 15.0604 17.6447 14.9818 17.8809 14.7743ZM15.044 13.8188V14.2277C15.3075 14.2277 16.3305 14.368 16.5012 14.4651C16.5548 14.4957 16.565 14.4959 16.5375 14.5341L16.519 14.5297L16.349 14.7098C16.4194 14.7854 16.5753 14.7981 16.7355 14.7672L16.8079 14.8281C16.8324 14.7953 16.8533 14.7623 16.8706 14.7294C16.9419 14.7061 17.01 14.673 17.0661 14.6335C17.1439 14.5788 17.2241 14.5788 17.3257 14.6387L17.4416 14.415C17.265 14.3109 17.0896 14.3109 16.9342 14.4202C16.9065 14.2973 16.8238 14.1854 16.6817 14.1044C16.4374 13.9653 15.3687 13.8188 15.044 13.8188Z" fill="#D62818"/>
<path d="M16.6649 14.4863L16.7081 14.5477C16.8989 14.395 16.8232 14.2647 16.531 14.1992C16.0518 14.0916 15.4507 14.0151 14.9682 14.0151V14.0918C15.4453 14.0918 16.0415 14.1677 16.5162 14.2742C16.7586 14.3286 16.7914 14.3852 16.6649 14.4863ZM16.4521 14.2602L16.4662 14.185C15.9925 14.0841 15.4277 14.0151 14.9682 14.0151V14.0918C15.4225 14.0918 15.9828 14.1602 16.4521 14.2602Z" fill="#EBCA5E"/>
<path d="M14.7248 14.8643L14.5386 14.5365C14.7082 14.4268 14.926 14.3745 15.1904 14.3745C15.456 14.3745 15.6713 14.4273 15.8349 14.5389L15.6412 14.8618C15.5427 14.7946 15.3929 14.7578 15.1904 14.7578C14.9867 14.7578 14.832 14.795 14.7248 14.8643Z" fill="#D62818"/>
</g>
</g>
<path d="M45.5707 22.2422C44.2596 22.2422 43.604 21.5668 43.604 20.2159V3.02206C43.604 1.67118 44.2794 0.995741 45.6303 0.995741H56.0301C57.0631 0.995741 57.5796 1.49239 57.5796 2.48568C57.5796 3.5187 57.0631 4.03521 56.0301 4.03521H47.4182V9.96516H55.4043C56.4373 9.96516 56.9538 10.4618 56.9538 11.4551C56.9538 12.4881 56.4373 13.0046 55.4043 13.0046H47.4182V20.2159C47.4182 21.5668 46.8024 22.2422 45.5707 22.2422Z" fill="black"/>
<path d="M70.8352 22.2422C70.1399 22.2422 69.6432 22.0039 69.3452 21.5271C69.0472 21.0503 69.0572 20.4742 69.375 19.7987L77.2419 2.36648C77.5002 1.79037 77.8081 1.38313 78.1657 1.14473C78.5431 0.886479 78.9702 0.757351 79.447 0.757351C79.9039 0.757351 80.3112 0.886479 80.6688 1.14473C81.0462 1.38313 81.3641 1.79037 81.6223 2.36648L89.519 19.7987C89.8368 20.4941 89.8567 21.0801 89.5786 21.5569C89.3005 22.0138 88.8237 22.2422 88.1482 22.2422C87.592 22.2422 87.1549 22.1131 86.8371 21.8549C86.5391 21.5767 86.2709 21.1596 86.0325 20.6033L84.5426 17.1467H74.2918L72.8317 20.6033C72.5734 21.1794 72.3052 21.5966 72.0271 21.8549C71.749 22.1131 71.3517 22.2422 70.8352 22.2422ZM79.3874 5.13777L75.603 14.1072H83.2314L79.447 5.13777H79.3874Z" fill="black"/>
<path d="M106.508 22.2422C105.317 22.2422 104.721 21.6264 104.721 20.3947V2.66447C104.721 2.04863 104.87 1.58178 105.168 1.26393C105.485 0.92621 105.893 0.757351 106.389 0.757351C106.846 0.757351 107.184 0.846747 107.402 1.02554C107.641 1.18447 107.919 1.46259 108.237 1.8599L118.875 15.6567V2.57508C118.875 1.36326 119.471 0.757351 120.663 0.757351C121.835 0.757351 122.421 1.36326 122.421 2.57508V20.4543C122.421 21.0106 122.282 21.4476 122.004 21.7655C121.726 22.0833 121.348 22.2422 120.871 22.2422C120.415 22.2422 120.047 22.1529 119.769 21.9741C119.511 21.7953 119.223 21.5072 118.905 21.1099L108.267 7.28328V20.3947C108.267 21.6264 107.681 22.2422 106.508 22.2422Z" fill="black"/>
<path d="M146.172 22.3018C144.841 22.3018 143.54 22.1529 142.268 21.8549C141.017 21.5569 139.924 21.1099 138.99 20.5139C138.534 20.2159 138.255 19.8484 138.156 19.4114C138.057 18.9743 138.087 18.5671 138.246 18.1896C138.424 17.7923 138.692 17.5241 139.05 17.3851C139.428 17.2261 139.855 17.2957 140.331 17.5936C141.206 18.1102 142.129 18.4876 143.103 18.726C144.076 18.9644 145.099 19.0836 146.172 19.0836C147.741 19.0836 148.884 18.8253 149.599 18.3088C150.314 17.7724 150.672 17.0871 150.672 16.2527C150.672 15.5574 150.413 15.0111 149.897 14.6138C149.4 14.2165 148.536 13.8887 147.304 13.6304L144.026 12.945C140.292 12.1504 138.424 10.2334 138.424 7.19388C138.424 5.88274 138.772 4.74045 139.467 3.76702C140.163 2.7936 141.126 2.0387 142.358 1.50232C143.589 0.965942 145.01 0.697754 146.619 0.697754C147.811 0.697754 148.943 0.846747 150.016 1.14473C151.089 1.44272 152.052 1.87977 152.907 2.45588C153.304 2.734 153.542 3.08165 153.622 3.49884C153.701 3.89615 153.651 4.2736 153.473 4.63119C153.294 4.96891 153.006 5.2073 152.609 5.34636C152.231 5.46555 151.784 5.37616 151.268 5.07817C150.533 4.66099 149.788 4.363 149.033 4.18421C148.278 4.00541 147.463 3.91602 146.589 3.91602C145.218 3.91602 144.146 4.20407 143.371 4.78018C142.596 5.35629 142.209 6.11119 142.209 7.04489C142.209 7.76006 142.447 8.33616 142.924 8.77321C143.401 9.1904 144.215 9.51818 145.367 9.75657L148.615 10.4419C150.582 10.8591 152.042 11.5147 152.996 12.4087C153.969 13.3026 154.456 14.4946 154.456 15.9845C154.456 17.2361 154.118 18.3386 153.443 19.2922C152.767 20.2457 151.804 20.9907 150.552 21.5271C149.321 22.0436 147.861 22.3018 146.172 22.3018Z" fill="black"/>
</svg>
